<svg width="96" height="96" viewBox="0 0 480 480" fill="none" xmlns="http://www.w3.org/2000/svg">
<path d="M164.4 46L242.8 48.4L284 47.6C284.8 51.6 285.2 56.9333 285.2 63.6C285.2 70.2667 284.133 75.0667 282 78C280.133 80.9333 276.8 82.4 272 82.4C267.2 82.4 256.933 81.7333 241.2 80.4C225.733 79.0667 214.267 78.4 206.8 78.4L192.4 79.2C191.333 89.3333 184.933 121.733 173.2 176.4C193.467 174.533 210.4 173.6 224 173.6C237.6 173.6 248.133 174.667 255.6 176.8C255.067 188 252.667 197.6 248.4 205.6C236.933 203.2 223.333 202 207.6 202C191.867 202 178.533 202.8 167.6 204.4C157.733 252.667 152.8 289.333 152.8 314.4V321.2C143.2 326.533 122.933 329.2 92 329.2H88C88 311.067 94.1333 273.333 106.4 216C118.933 158.667 126.533 117.467 129.2 92.4C129.2 88.1333 127.867 83.0667 125.2 77.2C122.533 71.0667 119.733 66.1333 116.8 62.4L112.8 56.8L114 50.8C128.4 47.8667 145.2 46.2667 164.4 46Z" fill="#FFEBCD"/>
<path d="M392.2 403.8C389 412.067 383.933 418.6 377 423.4C370.333 428.2 362.333 430.6 353 430.6C343.933 430.6 330.2 425 311.8 413.8C293.667 402.6 279.133 395.4 268.2 392.2C261 401.8 252.867 409.8 243.8 416.2C234.733 422.6 228.467 425.8 225 425.8C222.333 425.8 217 420.067 209 408.6C201 396.867 197 388.467 197 383.4C197 380.467 201.133 376.067 209.4 370.2C217.933 364.333 226.867 360.333 236.2 358.2C242.867 341.933 249.8 317.933 257 286.2C264.2 254.2 269.8 221.267 273.8 187.4C273.8 183.133 272.333 178.067 269.4 172.2C266.733 166.067 263.933 161.133 261 157.4L257 151.8L258.2 145.8C274.2 141.267 300.467 139 337 139C340.467 144.867 342.2 153.8 342.2 165.8C342.2 177.8 338.733 195.667 331.8 219.4C324.867 243.133 315.267 271.667 303 305C291 338.067 284.067 357.667 282.2 363.8C283.267 364.067 286.6 365 292.2 366.6C297.8 368.2 301.4 369.267 303 369.8C304.867 370.067 308.333 370.867 313.4 372.2C318.467 373.267 322.467 374.067 325.4 374.6C328.333 374.867 332.2 375.267 337 375.8C345.267 377.133 353 377.8 360.2 377.8C367.667 377.8 373 375.933 376.2 372.2L387.4 351.4L400.6 354.6C400.6 371.933 397.8 388.333 392.2 403.8Z" fill="#FF7F50"/>
</svg>
